<svg width="35" height="39" viewBox="0 0 35 39" fill="none" xmlns="http://www.w3.org/2000/svg">
<path d="M6.09667 28.2738C6.10835 30.5282 6.10718 32.7736 6.09317 35.0102C6.08617 36.1217 6.31735 36.9286 7.27011 37.5715C7.69278 37.8549 8.15632 37.9956 8.66072 37.9933C16.6308 37.9755 24.2318 37.9777 31.464 38C31.966 38.0023 32.4342 37.8494 32.8686 37.5413C33.6228 37.0034 34 36.172 34 35.047C34 26.862 33.9976 18.6848 33.993 10.5154" stroke="#9C9C9C" stroke-width="2"/>
<path d="M33.993 10.5154C33.9113 10.5377 33.8459 10.4172 33.7969 10.1538" stroke="#393939" stroke-width="2"/>
<path d="M33.7969 10.1537L24.6545 1.28125" stroke="#9C9C9C" stroke-width="2"/>
<path d="M24.6543 1.28163L24.1289 1.00708" stroke="#393939" stroke-width="2"/>
<path d="M24.1293 1.0067C19.223 1.0067 14.3051 1.00446 9.37547 1C8.00938 1 7.00407 1.20758 6.37357 2.4196C6.18442 2.78566 6.09218 3.48653 6.09685 4.52221C6.10852 6.56456 6.10619 8.63035 6.08984 10.7196" stroke="#9C9C9C" stroke-width="2"/>
<path d="M24.1289 1.00708L24.1359 10.3316C24.1359 10.4454 24.1955 10.5023 24.3146 10.5023L33.9928 10.5157" stroke="#393939" stroke-width="2"/>
<path d="M6.09685 28.2738C9.77012 28.2537 13.4702 28.2537 17.1972 28.2738C18.5563 28.2805 19.2288 27.5829 19.2148 26.1812C19.1751 21.8264 19.1775 17.4705 19.2218 13.1135C19.2359 11.6203 18.791 10.6862 17.0221 10.7163C15.5346 10.7408 11.8905 10.742 6.08984 10.7196" stroke="#393939" stroke-width="2"/>
<path d="M24.6547 1.28125C24.6267 1.29018 24.5987 1.29799 24.5707 1.30469C24.5543 1.30915 24.5461 1.32478 24.5461 1.35156L24.5567 9.93947C24.5567 10.06 24.6197 10.1203 24.7458 10.1203L33.797 10.1537" stroke="#393939" stroke-width="2"/>
<path d="M30.7143 15.437C30.7143 15.4095 30.7029 15.3831 30.6825 15.3637C30.6622 15.3442 30.6346 15.3333 30.6058 15.3333H21.1762C21.1474 15.3333 21.1198 15.3442 21.0994 15.3637C21.0791 15.3831 21.0676 15.4095 21.0676 15.437V16.2004C21.0676 16.2279 21.0791 16.2543 21.0994 16.2738C21.1198 16.2933 21.1474 16.3042 21.1762 16.3042H30.6058C30.6346 16.3042 30.6622 16.2933 30.6825 16.2738C30.7029 16.2543 30.7143 16.2279 30.7143 16.2004V15.437Z" stroke="#808080" stroke-width="2"/>
<path d="M30.7217 18.3079C30.7218 18.2766 30.7154 18.2457 30.703 18.2169C30.6905 18.188 30.6722 18.1617 30.6492 18.1396C30.6261 18.1175 30.5987 18.1 30.5686 18.088C30.5384 18.076 30.5061 18.0698 30.4734 18.0697L21.3031 18.0544C21.2705 18.0544 21.2381 18.0605 21.2079 18.0724C21.1777 18.0843 21.1503 18.1017 21.1272 18.1238C21.104 18.1458 21.0857 18.172 21.0731 18.2008C21.0605 18.2296 21.0541 18.2605 21.054 18.2917L21.0532 18.7203C21.0532 18.7515 21.0595 18.7824 21.072 18.8113C21.0844 18.8402 21.1027 18.8664 21.1258 18.8885C21.1488 18.9106 21.1762 18.9282 21.2064 18.9402C21.2365 18.9522 21.2688 18.9584 21.3015 18.9584L30.4718 18.9737C30.5045 18.9738 30.5368 18.9677 30.567 18.9558C30.5972 18.9439 30.6247 18.9264 30.6478 18.9044C30.6709 18.8824 30.6893 18.8562 30.7018 18.8274C30.7144 18.7985 30.7209 18.7676 30.721 18.7364L30.7217 18.3079Z" stroke="#97BDE8" stroke-width="2"/>
<path d="M30.7237 20.875C30.7236 20.8539 30.7192 20.833 30.7107 20.8136C30.7021 20.7941 30.6897 20.7764 30.674 20.7615C30.6584 20.7467 30.6398 20.7349 30.6193 20.7269C30.5989 20.7189 30.577 20.7148 30.555 20.7148L21.2306 20.746C21.2085 20.7461 21.1866 20.7503 21.1663 20.7584C21.1459 20.7666 21.1274 20.7785 21.1118 20.7934C21.0963 20.8084 21.084 20.8262 21.0756 20.8457C21.0672 20.8652 21.0629 20.8861 21.063 20.9072L21.0653 21.5501C21.0654 21.5712 21.0698 21.5921 21.0784 21.6115C21.0869 21.631 21.0993 21.6487 21.115 21.6636C21.1307 21.6784 21.1492 21.6902 21.1697 21.6982C21.1901 21.7062 21.212 21.7103 21.2341 21.7102L30.5585 21.6791C30.5805 21.679 30.6024 21.6748 30.6228 21.6667C30.6431 21.6585 30.6616 21.6466 30.6772 21.6317C30.6927 21.6167 30.7051 21.5989 30.7134 21.5794C30.7218 21.5599 30.7261 21.539 30.726 21.5179L30.7237 20.875Z" stroke="#808080" stroke-width="2"/>
<path d="M30.7148 23.6549C30.7148 23.6272 30.7092 23.5998 30.6981 23.5742C30.6871 23.5486 30.6709 23.5253 30.6504 23.5057C30.63 23.486 30.6057 23.4705 30.5789 23.4598C30.5522 23.4492 30.5235 23.4437 30.4945 23.4436L21.2752 23.4282C21.2462 23.4282 21.2175 23.4336 21.1907 23.4441C21.1639 23.4547 21.1395 23.4702 21.119 23.4897C21.0985 23.5093 21.0822 23.5325 21.071 23.5581C21.0599 23.5837 21.0542 23.6111 21.0541 23.6388L21.0532 24.1209C21.0532 24.1486 21.0588 24.1761 21.0699 24.2017C21.0809 24.2273 21.0971 24.2506 21.1176 24.2702C21.138 24.2898 21.1623 24.3054 21.1891 24.316C21.2158 24.3267 21.2445 24.3322 21.2735 24.3322L30.4929 24.3476C30.5218 24.3477 30.5505 24.3423 30.5773 24.3317C30.6041 24.3211 30.6285 24.3056 30.649 24.2861C30.6695 24.2665 30.6858 24.2433 30.697 24.2177C30.7081 24.1922 30.7139 24.1648 30.7139 24.1371L30.7148 23.6549Z" stroke="#393939" stroke-width="2"/>
<path d="M18.7871 12.3735C18.7871 12.0343 18.6462 11.7089 18.3952 11.4691C18.1443 11.2292 17.8039 11.0945 17.4491 11.0945H2.76532C2.41044 11.0945 2.07009 11.2292 1.81916 11.4691C1.56822 11.7089 1.42725 12.0343 1.42725 12.3735V26.5895C1.42725 26.7575 1.46186 26.9238 1.5291 27.079C1.59635 27.2342 1.69491 27.3752 1.81916 27.4939C1.94341 27.6127 2.09092 27.7069 2.25326 27.7712C2.4156 27.8354 2.5896 27.8685 2.76532 27.8685H17.4491C17.6248 27.8685 17.7988 27.8354 17.9611 27.7712C18.1235 27.7069 18.271 27.6127 18.3952 27.4939C18.5195 27.3752 18.618 27.2342 18.6853 27.079C18.7525 26.9238 18.7871 26.7575 18.7871 26.5895V12.3735Z" stroke="#393939" stroke-width="2"/>
<path d="M9.91462 17.3824C9.97066 17.1011 10.0337 17.1 10.1038 17.379L11.7746 24.0518C11.805 24.1657 11.8809 24.2226 12.0023 24.2226L13.6241 24.2259C13.7689 24.2259 13.8856 24.1701 13.9744 24.0585C14.2686 23.6768 14.195 23.3253 14.3001 22.8867C14.9563 20.2082 15.6067 17.5487 16.2512 14.9081C16.2675 14.8434 16.2407 14.811 16.1706 14.811L14.4823 14.8311C14.4262 14.8311 14.3935 14.8568 14.3842 14.9081L13.0917 21.5675C13.0169 21.9425 12.9329 21.9447 12.8395 21.5742L11.1861 15.0354C11.1511 14.8925 11.0565 14.8211 10.9024 14.8211L9.3962 14.8244C9.23741 14.8244 9.13817 14.8981 9.09847 15.0454C8.4773 17.4047 7.92269 19.7026 7.43464 21.9392C7.39961 22.1021 7.35641 22.1043 7.30503 21.9459C6.98978 20.9883 6.89871 20.0374 6.68153 19.0799C6.44101 18.0263 6.2215 16.946 6.02301 15.8389C5.97397 15.5688 5.91676 15.3032 5.85137 15.0421C5.81401 14.8947 5.71476 14.8211 5.55363 14.8211L4.1315 14.8244C3.95402 14.8244 3.8863 14.907 3.92833 15.0722L6.18063 24.0552C6.20866 24.1668 6.28338 24.2226 6.40481 24.2226H7.94254C8.10287 24.2226 8.2575 24.1657 8.37654 24.0631C8.49559 23.9604 8.57059 23.8192 8.58706 23.6668C8.63843 23.1668 8.726 22.6635 8.84977 22.1568C9.24675 20.5274 9.6017 18.9359 9.91462 17.3824Z" stroke="#808080" stroke-width="2"/>
<path d="M24.1293 1.0067L24.1363 10.3312C24.1363 10.445 24.1958 10.5019 24.3149 10.5019L33.9932 10.5153C33.9978 18.6847 34.0002 26.8619 34.0002 35.0469C34.0002 36.1719 33.623 37.0034 32.8688 37.5413C32.4344 37.8493 31.9662 38.0022 31.4641 38C24.232 37.9777 16.6309 37.9754 8.6609 37.9933C8.1565 37.9955 7.69296 37.8549 7.27029 37.5714C6.31753 36.9286 6.08634 36.1217 6.09335 35.0101C6.10736 32.7736 6.10852 30.5281 6.09685 28.2737C9.77012 28.2536 13.4702 28.2536 17.1972 28.2737C18.5563 28.2804 19.2288 27.5829 19.2148 26.1811C19.1751 21.8264 19.1775 17.4705 19.2218 13.1135C19.2359 11.6202 18.791 10.6861 17.0221 10.7162C15.5346 10.7408 11.8905 10.7419 6.08984 10.7196C6.10619 8.63035 6.10852 6.56456 6.09685 4.52221C6.09218 3.48653 6.18442 2.78566 6.37357 2.4196C7.00407 1.20758 8.00938 1 9.37547 1C14.3051 1.00446 19.223 1.0067 24.1293 1.0067ZM30.7145 15.4371C30.7145 15.4095 30.7031 15.3831 30.6827 15.3637C30.6624 15.3442 30.6347 15.3333 30.6059 15.3333H21.1764C21.1476 15.3333 21.12 15.3442 21.0996 15.3637C21.0793 15.3831 21.0678 15.4095 21.0678 15.4371V16.2004C21.0678 16.228 21.0793 16.2544 21.0996 16.2738C21.12 16.2933 21.1476 16.3042 21.1764 16.3042H30.6059C30.6347 16.3042 30.6624 16.2933 30.6827 16.2738C30.7031 16.2544 30.7145 16.228 30.7145 16.2004V15.4371ZM30.7219 18.3078C30.722 18.2765 30.7156 18.2456 30.7032 18.2167C30.6907 18.1879 30.6724 18.1616 30.6494 18.1395C30.6263 18.1174 30.5989 18.0999 30.5688 18.0879C30.5386 18.0759 30.5063 18.0697 30.4736 18.0696L21.3033 18.0543C21.2707 18.0543 21.2383 18.0604 21.2081 18.0723C21.1779 18.0842 21.1505 18.1016 21.1274 18.1237C21.1042 18.1457 21.0859 18.1719 21.0733 18.2007C21.0607 18.2295 21.0543 18.2604 21.0542 18.2916L21.0534 18.7202C21.0534 18.7514 21.0597 18.7823 21.0722 18.8112C21.0846 18.8401 21.1029 18.8663 21.126 18.8884C21.149 18.9105 21.1764 18.9281 21.2066 18.9401C21.2367 18.9521 21.269 18.9583 21.3017 18.9583L30.472 18.9736C30.5047 18.9737 30.537 18.9676 30.5672 18.9557C30.5974 18.9438 30.6249 18.9263 30.648 18.9043C30.6711 18.8822 30.6895 18.8561 30.702 18.8273C30.7146 18.7984 30.7211 18.7675 30.7212 18.7363L30.7219 18.3078ZM30.7239 20.875C30.7238 20.8539 30.7194 20.833 30.7108 20.8136C30.7023 20.7941 30.6899 20.7764 30.6742 20.7615C30.6585 20.7467 30.6399 20.7349 30.6195 20.7269C30.5991 20.7189 30.5772 20.7148 30.5551 20.7148L21.2307 20.746C21.2087 20.7461 21.1868 20.7503 21.1664 20.7584C21.1461 20.7666 21.1276 20.7785 21.112 20.7934C21.0964 20.8084 21.0841 20.8262 21.0757 20.8457C21.0674 20.8652 21.0631 20.8861 21.0632 20.9072L21.0655 21.5501C21.0656 21.5712 21.07 21.5921 21.0785 21.6115C21.087 21.631 21.0995 21.6487 21.1152 21.6636C21.1308 21.6784 21.1494 21.6902 21.1698 21.6982C21.1903 21.7062 21.2122 21.7103 21.2342 21.7102L30.5586 21.6791C30.5807 21.679 30.6026 21.6748 30.6229 21.6667C30.6433 21.6585 30.6618 21.6466 30.6773 21.6317C30.6929 21.6167 30.7052 21.5989 30.7136 21.5794C30.722 21.5599 30.7263 21.539 30.7262 21.5179L30.7239 20.875ZM30.715 23.6547C30.715 23.627 30.7093 23.5996 30.6983 23.5739C30.6873 23.5483 30.671 23.5251 30.6506 23.5054C30.6301 23.4858 30.6058 23.4702 30.5791 23.4596C30.5523 23.4489 30.5236 23.4434 30.4947 23.4434L21.2753 23.428C21.2463 23.4279 21.2176 23.4334 21.1908 23.4439C21.1641 23.4545 21.1397 23.47 21.1192 23.4895C21.0986 23.5091 21.0823 23.5323 21.0712 23.5579C21.0601 23.5834 21.0543 23.6109 21.0543 23.6386L21.0534 24.1207C21.0533 24.1484 21.059 24.1758 21.07 24.2014C21.0811 24.227 21.0973 24.2503 21.1177 24.2699C21.1382 24.2896 21.1625 24.3051 21.1893 24.3158C21.216 24.3264 21.2447 24.3319 21.2737 24.332L30.493 24.3474C30.522 24.3474 30.5507 24.342 30.5775 24.3315C30.6043 24.3209 30.6286 24.3054 30.6492 24.2859C30.6697 24.2663 30.686 24.2431 30.6971 24.2175C30.7083 24.1919 30.714 24.1645 30.7141 24.1368L30.715 23.6547Z" fill="white"/>
<path d="M24.1187 1L24.6411 1.2706C24.6132 1.2794 24.5854 1.2871 24.5575 1.2937C24.5412 1.2981 24.5331 1.3135 24.5331 1.33991L24.5436 9.80453C24.5436 9.92333 24.6063 9.98273 24.7316 9.98273L33.7315 10.0157C33.7802 10.2753 33.8452 10.3941 33.9265 10.3721L24.3032 10.3589C24.1848 10.3589 24.1256 10.3028 24.1256 10.1906L24.1187 1Z" fill="#1251B2"/>
<path d="M24.6547 1.28125L33.797 10.1537L24.7458 10.1203C24.6197 10.1203 24.5567 10.06 24.5567 9.93947L24.5461 1.35156C24.5461 1.32478 24.5543 1.30915 24.5707 1.30469C24.5987 1.29799 24.6267 1.29018 24.6547 1.28125Z" fill="white"/>
<path d="M6.08968 10.7197C11.8903 10.742 15.5344 10.7409 17.0219 10.7163C18.7908 10.6862 19.2357 11.6203 19.2217 13.1136C19.1773 17.4706 19.175 21.8265 19.2147 26.1812C19.2287 27.583 18.5561 28.2805 17.1971 28.2738C13.4701 28.2537 9.76996 28.2537 6.09669 28.2738L2.65343 28.2537C2.43631 28.2524 2.22159 28.2102 2.02152 28.1293C1.82146 28.0485 1.63997 27.9308 1.48742 27.7828C1.33487 27.6348 1.21424 27.4595 1.13244 27.2668C1.05063 27.0742 1.00923 26.868 1.01062 26.66C1.03864 22.1512 1.03514 17.4706 1.00011 12.618C0.989605 11.4295 1.71118 10.6895 3.01072 10.6929C4.03821 10.6973 5.06453 10.7063 6.08968 10.7197ZM18.7873 12.3736C18.7873 12.0344 18.6464 11.7091 18.3954 11.4693C18.1445 11.2294 17.8041 11.0947 17.4493 11.0947H2.76552C2.41065 11.0947 2.0703 11.2294 1.81937 11.4693C1.56843 11.7091 1.42745 12.0344 1.42745 12.3736V26.5897C1.42745 26.7577 1.46207 26.924 1.52931 27.0792C1.59655 27.2343 1.69512 27.3753 1.81937 27.4941C1.94362 27.6129 2.09113 27.7071 2.25347 27.7713C2.41581 27.8356 2.58981 27.8687 2.76552 27.8687H17.4493C17.625 27.8687 17.799 27.8356 17.9613 27.7713C18.1237 27.7071 18.2712 27.6129 18.3954 27.4941C18.5197 27.3753 18.6182 27.2343 18.6855 27.0792C18.7527 26.924 18.7873 26.7577 18.7873 26.5897V12.3736Z" fill="#1251B2"/>
<path d="M18.7871 26.5895C18.7871 26.7575 18.7525 26.9238 18.6853 27.079C18.618 27.2342 18.5195 27.3752 18.3952 27.4939C18.271 27.6127 18.1235 27.7069 17.9611 27.7712C17.7988 27.8354 17.6248 27.8685 17.4491 27.8685H2.76532C2.5896 27.8685 2.4156 27.8354 2.25326 27.7712C2.09092 27.7069 1.94341 27.6127 1.81916 27.4939C1.69491 27.3752 1.59635 27.2342 1.5291 27.079C1.46186 26.9238 1.42725 26.7575 1.42725 26.5895V12.3735C1.42725 12.0343 1.56822 11.7089 1.81916 11.4691C2.07009 11.2292 2.41044 11.0945 2.76532 11.0945H17.4491C17.8039 11.0945 18.1443 11.2292 18.3952 11.4691C18.6462 11.7089 18.7871 12.0343 18.7871 12.3735V26.5895ZM9.91453 17.3822C9.97058 17.101 10.0336 17.0999 10.1037 17.3789L11.7745 24.0517C11.8049 24.1655 11.8808 24.2224 12.0022 24.2224L13.624 24.2258C13.7688 24.2258 13.8855 24.17 13.9743 24.0584C14.2685 23.6767 14.195 23.3251 14.3 22.8865C14.9562 20.208 15.6066 17.5485 16.2511 14.908C16.2674 14.8433 16.2406 14.8109 16.1705 14.8109L14.4822 14.831C14.4261 14.831 14.3934 14.8566 14.3841 14.908L13.0916 21.5674C13.0168 21.9424 12.9328 21.9446 12.8394 21.5741L11.186 15.0352C11.151 14.8924 11.0564 14.8209 10.9023 14.8209L9.39612 14.8243C9.23732 14.8243 9.13808 14.8979 9.09838 15.0453C8.47722 17.4046 7.92261 19.7025 7.43455 21.939C7.39952 22.102 7.35632 22.1042 7.30495 21.9457C6.98969 20.9882 6.89862 20.0373 6.68145 19.0797C6.44092 18.0262 6.22141 16.9459 6.02292 15.8388C5.97388 15.5687 5.91667 15.3031 5.85128 15.0419C5.81392 14.8946 5.71467 14.8209 5.55355 14.8209L4.13141 14.8243C3.95393 14.8243 3.88621 14.9069 3.92825 15.072L6.18055 24.055C6.20857 24.1666 6.2833 24.2224 6.40473 24.2224H7.94246C8.10279 24.2224 8.25742 24.1656 8.37646 24.0629C8.4955 23.9603 8.5705 23.8191 8.58697 23.6666C8.63835 23.1667 8.72591 22.6633 8.84968 22.1566C9.24666 20.5272 9.60162 18.9358 9.91453 17.3822Z" fill="white"/>
<path d="M9.91462 17.3824C9.6017 18.9359 9.24675 20.5274 8.84977 22.1568C8.726 22.6635 8.63843 23.1668 8.58706 23.6668C8.57059 23.8192 8.49559 23.9604 8.37654 24.0631C8.2575 24.1657 8.10287 24.2226 7.94254 24.2226H6.40481C6.28338 24.2226 6.20866 24.1668 6.18063 24.0552L3.92833 15.0722C3.8863 14.907 3.95402 14.8244 4.1315 14.8244L5.55363 14.8211C5.71476 14.8211 5.81401 14.8947 5.85137 15.0421C5.91676 15.3032 5.97397 15.5688 6.02301 15.8389C6.2215 16.946 6.44101 18.0263 6.68153 19.0799C6.89871 20.0374 6.98978 20.9883 7.30503 21.9459C7.35641 22.1043 7.39961 22.1021 7.43464 21.9392C7.92269 19.7026 8.4773 17.4047 9.09847 15.0454C9.13817 14.8981 9.23741 14.8244 9.3962 14.8244L10.9024 14.8211C11.0565 14.8211 11.1511 14.8925 11.1861 15.0354L12.8395 21.5742C12.9329 21.9447 13.0169 21.9425 13.0917 21.5675L14.3842 14.9081C14.3935 14.8568 14.4262 14.8311 14.4823 14.8311L16.1706 14.811C16.2407 14.811 16.2675 14.8434 16.2512 14.9081C15.6067 17.5487 14.9563 20.2082 14.3001 22.8867C14.195 23.3253 14.2686 23.6768 13.9744 24.0585C13.8856 24.1701 13.7689 24.2259 13.6241 24.2259L12.0023 24.2226C11.8809 24.2226 11.805 24.1657 11.7746 24.0518L10.1038 17.379C10.0337 17.1 9.97066 17.1011 9.91462 17.3824Z" fill="black"/>
<path d="M30.6058 15.3333H21.1762C21.1162 15.3333 21.0676 15.3797 21.0676 15.437V16.2004C21.0676 16.2577 21.1162 16.3042 21.1762 16.3042H30.6058C30.6657 16.3042 30.7143 16.2577 30.7143 16.2004V15.437C30.7143 15.3797 30.6657 15.3333 30.6058 15.3333Z" fill="black"/>
<path d="M30.4735 18.0697L21.3031 18.0544C21.1658 18.0541 21.0542 18.1604 21.054 18.2917L21.0532 18.7202C21.053 18.8515 21.1641 18.9581 21.3015 18.9584L30.4718 18.9737C30.6092 18.9739 30.7207 18.8676 30.7209 18.7364L30.7217 18.3078C30.722 18.1765 30.6108 18.0699 30.4735 18.0697Z" fill="#2F7BD0"/>
<path d="M30.555 20.7149L21.2306 20.746C21.1378 20.7463 21.0628 20.8185 21.0631 20.9073L21.0654 21.5501C21.0658 21.6389 21.1413 21.7106 21.2342 21.7103L30.5586 21.6792C30.6514 21.6789 30.7264 21.6066 30.7261 21.5179L30.7238 20.8751C30.7234 20.7863 30.6479 20.7146 30.555 20.7149Z" fill="black"/>
<path d="M30.4945 23.4435L21.2751 23.4281C21.1532 23.4279 21.0543 23.5222 21.0541 23.6387L21.0532 24.1208C21.053 24.2373 21.1516 24.3319 21.2735 24.3321L30.4928 24.3475C30.6147 24.3477 30.7137 24.2534 30.7139 24.1369L30.7148 23.6548C30.715 23.5383 30.6164 23.4437 30.4945 23.4435Z" fill="#1251B2"/>
</svg>
