<svg width="21" height="21" viewBox="0 0 21 21" fill="none" xmlns="http://www.w3.org/2000/svg">
<path d="M15.3514 15.691C15.3907 15.691 15.4284 15.6754 15.4562 15.6476C15.4839 15.6198 15.4996 15.5821 15.4996 15.5428L15.4887 12.0291C15.4887 11.9898 15.5043 11.9521 15.5321 11.9243C15.5599 11.8965 15.5976 11.8809 15.6369 11.8809L19.1253 11.8592C19.1646 11.8592 19.2023 11.8436 19.2301 11.8158C19.2579 11.788 19.2735 11.7503 19.2735 11.711L19.2699 1.14821C19.2699 1.1089 19.2543 1.07121 19.2265 1.04341C19.1987 1.01562 19.161 1 19.1217 1H6.25984C6.22053 1 6.18283 1.01562 6.15504 1.04341C6.12724 1.07121 6.11163 1.1089 6.11163 1.14821L6.09717 15.55C6.09717 15.5893 6.11278 15.627 6.14058 15.6548C6.16837 15.6826 6.20607 15.6982 6.24538 15.6982L15.3514 15.691Z" stroke="#2E2E2E" stroke-width="2"/>
<path d="M5.61263 16.2876C5.57716 16.2876 5.54314 16.2735 5.51806 16.2484C5.49297 16.2233 5.47888 16.1893 5.47888 16.1538L5.47165 5.20065C5.47165 5.16517 5.45756 5.13115 5.43248 5.10607C5.40739 5.08099 5.37337 5.06689 5.3379 5.06689H1.13375C1.09828 5.06689 1.06426 5.08099 1.03918 5.10607C1.01409 5.13115 1 5.16517 1 5.20065V19.8664C1 19.9018 1.01409 19.9359 1.03918 19.9609C1.06426 19.986 1.09828 20.0001 1.13375 20.0001L14.5126 19.9929C14.548 19.9929 14.582 19.9788 14.6071 19.9537C14.6322 19.9286 14.6463 19.8946 14.6463 19.8591L14.6499 16.4286C14.6499 16.3931 14.6358 16.3591 14.6107 16.334C14.5857 16.3089 14.5516 16.2948 14.5162 16.2948L5.61263 16.2876Z" stroke="#2E2E2E" stroke-width="2"/>
<path d="M16.3017 15.0511L18.7056 12.6834C18.8044 12.5846 18.784 12.5352 18.6442 12.5352H16.3993C16.3389 12.5352 16.281 12.5592 16.2383 12.6019C16.1956 12.6446 16.1716 12.7025 16.1716 12.7629L16.168 14.9969C16.1687 15.0121 16.1738 15.0267 16.1825 15.0391C16.1913 15.0514 16.2035 15.061 16.2175 15.0668C16.2316 15.0725 16.247 15.074 16.2619 15.0712C16.2768 15.0685 16.2906 15.0615 16.3017 15.0511Z" stroke="#2E2E2E" stroke-width="2"/>
<path d="M17.7987 2.67378C17.7987 2.61338 17.7747 2.55546 17.732 2.51275C17.6893 2.47004 17.6313 2.44604 17.5709 2.44604H7.99141C7.93101 2.44604 7.87309 2.47004 7.83038 2.51275C7.78767 2.55546 7.76367 2.61338 7.76367 2.67378V2.89068C7.76367 2.95108 7.78767 3.00901 7.83038 3.05172C7.87309 3.09443 7.93101 3.11842 7.99141 3.11842H17.5709C17.6313 3.11842 17.6893 3.09443 17.732 3.05172C17.7747 3.00901 17.7987 2.95108 17.7987 2.89068V2.67378Z" stroke="#2E2E2E" stroke-width="2"/>
<path d="M17.795 4.94752C17.795 4.88329 17.7694 4.82168 17.724 4.77626C17.6786 4.73084 17.617 4.70532 17.5528 4.70532H8.01661C7.98481 4.70532 7.95331 4.71159 7.92393 4.72376C7.89454 4.73593 7.86784 4.75377 7.84535 4.77626C7.82286 4.79875 7.80502 4.82545 7.79285 4.85484C7.78068 4.88422 7.77441 4.91572 7.77441 4.94752V5.09212C7.77441 5.12392 7.78068 5.15542 7.79285 5.1848C7.80502 5.21419 7.82286 5.24089 7.84535 5.26338C7.86784 5.28587 7.89454 5.30371 7.92393 5.31588C7.95331 5.32805 7.98481 5.33432 8.01661 5.33432H17.5528C17.617 5.33432 17.6786 5.3088 17.724 5.26338C17.7694 5.21796 17.795 5.15635 17.795 5.09212V4.94752Z" stroke="#2E2E2E" stroke-width="2"/>
<path d="M17.7697 7.08028C17.7697 7.0496 17.7575 7.02017 17.7358 6.99848C17.7141 6.97679 17.6847 6.9646 17.654 6.9646H7.89375C7.86307 6.9646 7.83365 6.97679 7.81196 6.99848C7.79026 7.02017 7.77808 7.0496 7.77808 7.08028V7.48515C7.77808 7.51583 7.79026 7.54525 7.81196 7.56694C7.83365 7.58864 7.86307 7.60082 7.89375 7.60082H17.654C17.6847 7.60082 17.7141 7.58864 17.7358 7.56694C17.7575 7.54525 17.7697 7.51583 17.7697 7.48515V7.08028Z" stroke="#2E2E2E" stroke-width="2"/>
<path d="M17.7731 9.36498C17.7731 9.31512 17.7533 9.26731 17.7181 9.23206C17.6828 9.19681 17.635 9.177 17.5851 9.177H7.96947C7.91962 9.177 7.8718 9.19681 7.83655 9.23206C7.8013 9.26731 7.78149 9.31512 7.78149 9.36498V9.62525C7.78149 9.67511 7.8013 9.72292 7.83655 9.75817C7.8718 9.79342 7.91962 9.81323 7.96947 9.81323H17.5851C17.635 9.81323 17.6828 9.79342 17.7181 9.75817C17.7533 9.72292 17.7731 9.67511 17.7731 9.62525V9.36498Z" stroke="#2E2E2E" stroke-width="2"/>
<path d="M15.3514 15.691L6.24538 15.6982C6.20607 15.6982 6.16837 15.6826 6.14058 15.6548C6.11278 15.627 6.09717 15.5893 6.09717 15.55L6.11163 1.14821C6.11163 1.1089 6.12724 1.07121 6.15504 1.04341C6.18283 1.01562 6.22053 1 6.25984 1H19.1217C19.161 1 19.1987 1.01562 19.2265 1.04341C19.2543 1.07121 19.2699 1.1089 19.2699 1.14821L19.2735 11.711C19.2735 11.7503 19.2579 11.788 19.2301 11.8158C19.2023 11.8436 19.1646 11.8592 19.1253 11.8592L15.6369 11.8809C15.5976 11.8809 15.5599 11.8965 15.5321 11.9243C15.5043 11.9521 15.4887 11.9898 15.4887 12.0291L15.4996 15.5428C15.4996 15.5821 15.4839 15.6198 15.4562 15.6476C15.4284 15.6754 15.3907 15.691 15.3514 15.691ZM17.7987 2.67371C17.7987 2.61331 17.7747 2.55538 17.7319 2.51267C17.6892 2.46996 17.6313 2.44597 17.5709 2.44597H7.99138C7.93098 2.44597 7.87306 2.46996 7.83035 2.51267C7.78764 2.55538 7.76364 2.61331 7.76364 2.67371V2.8906C7.76364 2.951 7.78764 3.00893 7.83035 3.05164C7.87306 3.09435 7.93098 3.11834 7.99138 3.11834H17.5709C17.6313 3.11834 17.6892 3.09435 17.7319 3.05164C17.7747 3.00893 17.7987 2.951 17.7987 2.8906V2.67371ZM17.795 4.94749C17.795 4.88325 17.7695 4.82165 17.7241 4.77623C17.6787 4.73081 17.6171 4.70529 17.5528 4.70529H8.01669C7.98488 4.70529 7.95339 4.71155 7.924 4.72373C7.89462 4.7359 7.86792 4.75374 7.84543 4.77623C7.82294 4.79872 7.8051 4.82542 7.79293 4.8548C7.78075 4.88419 7.77449 4.91568 7.77449 4.94749V5.09208C7.77449 5.12389 7.78075 5.15539 7.79293 5.18477C7.8051 5.21416 7.82294 5.24086 7.84543 5.26335C7.86792 5.28584 7.89462 5.30368 7.924 5.31585C7.95339 5.32802 7.98488 5.33428 8.01669 5.33428H17.5528C17.6171 5.33428 17.6787 5.30877 17.7241 5.26335C17.7695 5.21792 17.795 5.15632 17.795 5.09208V4.94749ZM17.7697 7.08029C17.7697 7.04961 17.7575 7.02019 17.7359 6.99849C17.7142 6.9768 17.6847 6.96461 17.6541 6.96461H7.89378C7.8631 6.96461 7.83368 6.9768 7.81198 6.99849C7.79029 7.02019 7.7781 7.04961 7.7781 7.08029V7.48516C7.7781 7.51584 7.79029 7.54526 7.81198 7.56696C7.83368 7.58865 7.8631 7.60084 7.89378 7.60084H17.6541C17.6847 7.60084 17.7142 7.58865 17.7359 7.56696C17.7575 7.54526 17.7697 7.51584 17.7697 7.48516V7.08029ZM17.7733 9.36492C17.7733 9.31506 17.7535 9.26725 17.7183 9.232C17.683 9.19674 17.6352 9.17694 17.5854 9.17694H7.96969C7.91984 9.17694 7.87203 9.19674 7.83678 9.232C7.80152 9.26725 7.78172 9.31506 7.78172 9.36492V9.62519C7.78172 9.67504 7.80152 9.72286 7.83678 9.75811C7.87203 9.79336 7.91984 9.81316 7.96969 9.81316H17.5854C17.6352 9.81316 17.683 9.79336 17.7183 9.75811C17.7535 9.72286 17.7733 9.67504 17.7733 9.62519V9.36492Z" fill="white"/>
<path d="M17.5709 2.44604H7.99141C7.86563 2.44604 7.76367 2.54801 7.76367 2.67378V2.89068C7.76367 3.01646 7.86563 3.11842 7.99141 3.11842H17.5709C17.6967 3.11842 17.7987 3.01646 17.7987 2.89068V2.67378C17.7987 2.54801 17.6967 2.44604 17.5709 2.44604Z" fill="#2E2E2E"/>
<path d="M17.5528 4.70532H8.01661C7.88285 4.70532 7.77441 4.81376 7.77441 4.94752V5.09212C7.77441 5.22588 7.88285 5.33432 8.01661 5.33432H17.5528C17.6865 5.33432 17.795 5.22588 17.795 5.09212V4.94752C17.795 4.81376 17.6865 4.70532 17.5528 4.70532Z" fill="#2E2E2E"/>
<path d="M5.61263 16.2876L14.5162 16.2948C14.5516 16.2948 14.5857 16.3089 14.6107 16.334C14.6358 16.3591 14.6499 16.3931 14.6499 16.4286L14.6463 19.8591C14.6463 19.8946 14.6322 19.9286 14.6071 19.9537C14.582 19.9788 14.548 19.9929 14.5126 19.9929L1.13375 20.0001C1.09828 20.0001 1.06426 19.986 1.03918 19.9609C1.01409 19.9359 1 19.9018 1 19.8664V5.20065C1 5.16517 1.01409 5.13115 1.03918 5.10607C1.06426 5.08099 1.09828 5.06689 1.13375 5.06689H5.3379C5.37337 5.06689 5.40739 5.08099 5.43248 5.10607C5.45756 5.13115 5.47165 5.16517 5.47165 5.20065L5.47888 16.1538C5.47888 16.1893 5.49297 16.2233 5.51806 16.2484C5.54314 16.2735 5.57716 16.2876 5.61263 16.2876Z" fill="white"/>
<path d="M17.654 6.9646H7.89375C7.82987 6.9646 7.77808 7.01639 7.77808 7.08028V7.48515C7.77808 7.54903 7.82987 7.60082 7.89375 7.60082H17.654C17.7179 7.60082 17.7697 7.54903 17.7697 7.48515V7.08028C17.7697 7.01639 17.7179 6.9646 17.654 6.9646Z" fill="#2E2E2E"/>
<path d="M17.5851 9.177H7.96947C7.86565 9.177 7.78149 9.26116 7.78149 9.36498V9.62525C7.78149 9.72907 7.86565 9.81323 7.96947 9.81323H17.5851C17.689 9.81323 17.7731 9.72907 17.7731 9.62525V9.36498C17.7731 9.26116 17.689 9.177 17.5851 9.177Z" fill="#2E2E2E"/>
<path d="M16.3017 15.0511C16.2906 15.0615 16.2768 15.0685 16.2619 15.0712C16.247 15.074 16.2316 15.0725 16.2175 15.0668C16.2035 15.061 16.1913 15.0514 16.1825 15.0391C16.1738 15.0267 16.1687 15.0121 16.168 14.9969L16.1716 12.7629C16.1716 12.7025 16.1956 12.6446 16.2383 12.6019C16.281 12.5592 16.3389 12.5352 16.3993 12.5352H18.6442C18.784 12.5352 18.8044 12.5846 18.7056 12.6834L16.3017 15.0511Z" fill="white"/>
</svg>
