<svg width="19" height="19" viewBox="0 0 19 19" fill="none" xmlns="http://www.w3.org/2000/svg">
<path d="M16.6789 10.7175C16.4884 10.1786 16.2798 9.65179 16.0528 9.13716C15.9176 8.83325 15.7261 8.40473 16.1258 8.18135C16.2311 8.12361 16.3436 8.09575 16.4631 8.09778C16.9089 8.1069 17.3384 8.10588 17.7517 8.09474C17.8862 8.09156 18.0141 8.03589 18.1081 7.93963C18.2021 7.84336 18.2547 7.71415 18.2547 7.57961V1.57275C18.2547 1.42283 18.195 1.27905 18.0887 1.17304C17.9824 1.06703 17.8382 1.00747 17.6879 1.00747H8.60999C8.47861 1.00747 8.35261 1.05951 8.25971 1.15212C8.16681 1.24474 8.11461 1.37035 8.11461 1.50133L8.11765 6.02205C8.11765 6.3523 7.95354 6.53465 7.62531 6.56909C7.57263 6.57416 7.52097 6.57011 7.47032 6.55694C7.2282 6.49311 7.10714 6.33609 7.10714 6.08587C7.10613 4.88237 7.10056 3.45043 7.09043 1.79005C7.08739 1.36964 7.1583 1.02115 7.30316 0.744588C7.56453 0.248196 8.07055 0.000506557 8.82121 0.0015196C11.675 0.00658483 14.6204 0.00607827 17.6575 0C18.1043 0 18.9993 0.284159 18.9993 0.857036C19.0003 3.15361 19.0003 5.6533 18.9993 8.35611C18.9993 8.40574 18.9846 8.45032 18.9552 8.48983C18.513 9.10829 17.9462 9.12501 17.2609 9.09462C17.1799 9.09158 17.154 9.12805 17.1834 9.20402C17.3505 9.63254 17.5152 10.0818 17.6773 10.5519C17.7968 10.9004 17.8469 11.2392 17.8277 11.5685C17.7912 12.2158 17.1454 12.2264 16.7002 12.0335C16.22 11.8258 15.7312 11.5188 15.2338 11.1126C14.3545 10.3954 13.544 9.65736 12.8025 8.89859C12.7583 8.853 12.7263 8.79692 12.7096 8.73555C12.6929 8.67419 12.6919 8.60953 12.7067 8.54757C12.7402 8.41284 12.805 8.3095 12.9013 8.23758C13.1606 8.04206 13.4037 8.0608 13.6306 8.2938C14.5778 9.26329 15.5478 10.1061 16.5406 10.8224C16.6976 10.9358 16.7437 10.9009 16.6789 10.7175Z" fill="#FEFEFE"/>
<path d="M14.2066 3.51466C14.0653 2.18048 12.178 2.24583 12.1704 3.54202C12.1658 4.12401 11.2891 4.2319 11.1842 3.71373C11.1346 3.47465 11.1477 3.23557 11.2237 2.99649C11.477 2.19315 12.0357 1.70486 12.8998 1.53163C13.1308 1.48604 13.3648 1.49668 13.6018 1.56354C14.549 1.82997 15.0824 2.44236 15.2019 3.4007C15.2931 4.12553 14.7552 4.52822 14.1656 4.78654C14.0045 4.85644 13.8764 4.96535 13.7811 5.11325C13.6307 5.34726 13.7705 5.63446 13.5973 5.85632C13.4403 6.05791 13.2245 6.1111 12.9499 6.01587C12.6597 5.9171 12.6612 5.61167 12.6764 5.35942C12.7357 4.41425 13.3466 4.02676 14.117 3.6727C14.1838 3.6413 14.2137 3.58862 14.2066 3.51466Z" fill="#FEFEFE"/>
<path d="M13.1761 7.59493C13.4548 7.59493 13.6806 7.36906 13.6806 7.09043C13.6806 6.81181 13.4548 6.58594 13.1761 6.58594C12.8975 6.58594 12.6716 6.81181 12.6716 7.09043C12.6716 7.36906 12.8975 7.59493 13.1761 7.59493Z" fill="#FEFEFE"/>
<path d="M1.97856 16.2018C1.67312 16.2018 1.35097 16.2368 1.06226 16.1273C0.352112 15.8599 -0.00144112 15.366 0.00159802 14.6458C0.0117285 11.9612 0.0112219 9.97259 7.84148e-05 8.67994C-0.00903899 7.63752 0.778097 7.07376 1.74302 7.07832C4.53498 7.09047 7.41051 7.08895 10.3696 7.07376C11.409 7.0692 12.1794 7.64208 12.1779 8.73009C12.1759 10.6336 12.1754 12.5716 12.1764 14.544C12.1774 15.2166 11.9196 15.7024 11.4029 16.0012C11.1345 16.1562 10.749 16.2286 10.2465 16.2185C8.98123 16.1952 7.6582 16.1932 6.27741 16.2124C6.23846 16.2134 6.20146 16.2292 6.17408 16.2565C5.18636 17.2685 4.20878 18.1058 3.24132 18.7684C3.09392 18.8702 2.91005 18.9933 2.7277 18.9948C2.37516 18.9998 2.00844 19.0019 1.62754 19.0008C1.56777 19.0008 1.52421 18.9745 1.49685 18.9218C1.40467 18.7425 1.3763 18.5576 1.41176 18.3672C1.53332 17.728 1.75366 17.0558 2.07277 16.3507C2.11836 16.2514 2.08695 16.2018 1.97856 16.2018ZM2.85991 15.1761C2.94695 15.1759 3.03264 15.1975 3.1092 15.239C3.18575 15.2804 3.25075 15.3404 3.29829 15.4135C3.34584 15.4865 3.37442 15.5703 3.38146 15.6573C3.38849 15.7443 3.37375 15.8317 3.33857 15.9116C3.09139 16.4698 2.84522 17.0842 2.60006 17.7548C2.52104 17.9726 2.57524 18.0136 2.76265 17.8779C3.75848 17.1596 4.70871 16.336 5.61336 15.4071C5.76431 15.2511 5.91525 15.1736 6.06619 15.1746C7.62223 15.1776 9.15852 15.1776 10.675 15.1746C10.8037 15.1742 10.927 15.1229 11.0179 15.0321C11.1088 14.9412 11.1598 14.8181 11.1598 14.6898V8.63891C11.1598 8.49625 11.1031 8.35942 11.0022 8.25854C10.9014 8.15766 10.7645 8.10099 10.6219 8.10099H1.61082C1.21675 8.10099 1.01971 8.29752 1.01971 8.69058L1.02123 14.705C1.02123 14.83 1.07086 14.9498 1.1592 15.0381C1.24754 15.1265 1.36736 15.1761 1.49229 15.1761H2.85991Z" fill="#FEFEFE"/>
<path d="M2.53903 10.131C2.81933 10.131 3.04657 9.90381 3.04657 9.6235C3.04657 9.3432 2.81933 9.11597 2.53903 9.11597C2.25873 9.11597 2.03149 9.3432 2.03149 9.6235C2.03149 9.90381 2.25873 10.131 2.53903 10.131Z" fill="#FEFEFE"/>
<path d="M9.63181 9.09438L4.06108 9.1041C3.7833 9.10459 3.5585 9.33017 3.55898 9.60796L3.55902 9.62923C3.55951 9.90702 3.78509 10.1318 4.06287 10.1313L9.6336 10.1216C9.91139 10.1211 10.1362 9.89554 10.1357 9.61775L10.1357 9.59648C10.1352 9.31869 9.9096 9.0939 9.63181 9.09438Z" fill="#FEFEFE"/>
<path d="M9.65483 11.1493L2.52199 11.1368C2.25595 11.1364 2.03991 11.3517 2.03944 11.6177L2.03939 11.6481C2.03893 11.9141 2.25421 12.1302 2.52025 12.1306L9.65309 12.1431C9.91913 12.1435 10.1352 11.9282 10.1356 11.6622L10.1357 11.6318C10.1362 11.3658 9.92086 11.1497 9.65483 11.1493Z" fill="#FEFEFE"/>
<path d="M8.11849 13.1688L2.53865 13.1591C2.26422 13.1586 2.04136 13.3807 2.04088 13.6551L2.04084 13.6764C2.04036 13.9508 2.26245 14.1737 2.53687 14.1741L8.11672 14.1839C8.39115 14.1844 8.61401 13.9623 8.61449 13.6878L8.61452 13.6666C8.615 13.3921 8.39292 13.1693 8.11849 13.1688Z" fill="#FEFEFE"/>
<path d="M9.63102 14.1807C9.91048 14.1807 10.137 13.9542 10.137 13.6747C10.137 13.3953 9.91048 13.1687 9.63102 13.1687C9.35155 13.1687 9.125 13.3953 9.125 13.6747C9.125 13.9542 9.35155 14.1807 9.63102 14.1807Z" fill="#FEFEFE"/>
</svg>
