<svg width="21" height="20" viewBox="0 0 21 20" fill="none" xmlns="http://www.w3.org/2000/svg">
<path d="M10.2654 0.0196935L19.6638 4.5998C19.8192 4.67512 19.812 4.71189 19.642 4.7101C13.3101 4.65629 6.99904 4.65315 0.708918 4.70068C0.548029 4.70158 0.539848 4.66705 0.684376 4.59711L10.0923 0.0196935C10.1194 0.00673453 10.1491 0 10.1791 0C10.2091 0 10.2387 0.00673453 10.2654 0.0196935Z" fill="white"/>
<path d="M1.6608 5.43506H18.6823C18.6953 5.43506 18.7078 5.44016 18.717 5.44924C18.7262 5.45832 18.7314 5.47064 18.7314 5.48348V6.18159C18.7314 6.19444 18.7262 6.20675 18.717 6.21584C18.7078 6.22492 18.6953 6.23002 18.6823 6.23002H1.65944C1.64642 6.23002 1.63393 6.22492 1.62473 6.21584C1.61552 6.20675 1.61035 6.19444 1.61035 6.18159L1.61171 5.48348C1.61171 5.47064 1.61689 5.45832 1.62609 5.44924C1.6353 5.44016 1.64778 5.43506 1.6608 5.43506Z" fill="white"/>
<path d="M4.58121 6.95386H3.04323C3.01612 6.95386 2.99414 6.97554 2.99414 7.00228V17.0583C2.99414 17.0851 3.01612 17.1068 3.04323 17.1068H4.58121C4.60832 17.1068 4.6303 17.0851 4.6303 17.0583V7.00228C4.6303 6.97554 4.60832 6.95386 4.58121 6.95386Z" fill="white"/>
<path d="M7.67897 6.95239H6.1737C6.13831 6.95239 6.10962 6.9807 6.10962 7.01561V17.0448C6.10962 17.0797 6.13831 17.108 6.1737 17.108H7.67897C7.71436 17.108 7.74305 17.0797 7.74305 17.0448V7.01561C7.74305 6.9807 7.71436 6.95239 7.67897 6.95239Z" fill="white"/>
<path d="M10.8219 6.95239H9.28936C9.26075 6.95239 9.23755 6.97528 9.23755 7.00351V17.0569C9.23755 17.0851 9.26075 17.108 9.28936 17.108H10.8219C10.8505 17.108 10.8737 17.0851 10.8737 17.0569V7.00351C10.8737 6.97528 10.8505 6.95239 10.8219 6.95239Z" fill="white"/>
<path d="M13.9538 6.96338H12.4131C12.3875 6.96338 12.3667 6.98385 12.3667 7.00911V17.0625C12.3667 17.0877 12.3875 17.1082 12.4131 17.1082H13.9538C13.9794 17.1082 14.0001 17.0877 14.0001 17.0625V7.00911C14.0001 6.98385 13.9794 6.96338 13.9538 6.96338Z" fill="white"/>
<path d="M17.0707 6.95508H15.5245C15.4982 6.95508 15.4768 6.97616 15.4768 7.00216V17.0609C15.4768 17.0869 15.4982 17.108 15.5245 17.108H17.0707C17.0971 17.108 17.1184 17.0869 17.1184 17.0609V7.00216C17.1184 6.97616 17.0971 6.95508 17.0707 6.95508Z" fill="white"/>
<path d="M18.2895 18.6319L20.2365 18.6467C20.2503 18.6467 20.2635 18.652 20.2732 18.6616C20.2829 18.6712 20.2884 18.6842 20.2884 18.6978L20.2911 19.9487C20.2911 19.9623 20.2856 19.9753 20.2759 19.9849C20.2662 19.9945 20.253 19.9998 20.2393 19.9998H0.0518117C0.0380704 19.9998 0.0248919 19.9945 0.0151753 19.9849C0.00545871 19.9753 3.11127e-09 19.9623 3.11127e-09 19.9487V18.7058C-4.67507e-06 18.6925 0.00526648 18.6797 0.0146901 18.6702C0.0241137 18.6606 0.0369446 18.6551 0.0504482 18.6547L2.05883 18.6251C2.07234 18.6248 2.08517 18.6192 2.09459 18.6097C2.10401 18.6002 2.10929 18.5874 2.10928 18.574L2.11473 17.8934C2.11473 17.8798 2.12019 17.8668 2.12991 17.8573C2.13963 17.8477 2.1528 17.8423 2.16655 17.8423L18.1832 17.8477C18.1969 17.8477 18.2101 17.853 18.2198 17.8626C18.2295 17.8722 18.235 17.8852 18.235 17.8988L18.2377 18.5807C18.2377 18.5943 18.2432 18.6073 18.2529 18.6169C18.2626 18.6265 18.2758 18.6319 18.2895 18.6319Z" fill="white"/>
</svg>
