<svg width="21" height="21" viewBox="0 0 21 21" fill="none" xmlns="http://www.w3.org/2000/svg">
<path d="M19.9322 4.14635C19.9315 3.73244 19.8493 3.32273 19.6902 2.94061C19.5311 2.55848 19.2984 2.21143 19.0052 1.91926C18.712 1.6271 18.3641 1.39554 17.9814 1.23782C17.5988 1.08009 17.1888 0.999281 16.7749 1L4.14635 1.02204C3.31043 1.0235 2.50932 1.35696 1.91927 1.94908C1.32922 2.5412 0.998547 3.34346 1 4.17938L1.02213 16.8536C1.02285 17.2676 1.10509 17.6773 1.26415 18.0594C1.42322 18.4415 1.65599 18.7886 1.94918 19.0807C2.24236 19.3729 2.59023 19.6045 2.97291 19.7622C3.35558 19.9199 3.76558 20.0007 4.17949 20L16.808 19.978C17.6439 19.9765 18.445 19.643 19.0351 19.0509C19.6251 18.4588 19.9558 17.6565 19.9543 16.8206L19.9322 4.14635Z" stroke="#808080" stroke-width="2"/>
<path d="M8.49026 12.1964C8.48674 12.3818 8.40227 12.4328 8.23685 12.3495L4.80518 10.6214C4.60104 10.5181 4.47844 10.5791 4.43738 10.8044L3.24069 17.3668C3.23843 17.3787 3.23861 17.391 3.24123 17.4029C3.24385 17.4147 3.24885 17.4259 3.25592 17.4358C3.263 17.4457 3.272 17.454 3.28239 17.4603C3.29278 17.4666 3.30434 17.4707 3.31636 17.4724C3.36681 17.4794 3.41609 17.4712 3.46419 17.4478C4.50366 16.9433 5.48447 16.4564 6.40662 15.9871C6.65124 15.8621 6.94513 15.8393 7.17743 15.7038C7.97991 15.2356 8.84399 14.9664 9.67111 14.5528C11.0884 13.8419 12.4792 13.1473 13.8437 12.4692C14.2255 12.2791 14.6268 12.2299 14.977 11.9536C15.0298 11.9125 15.0896 11.889 15.1565 11.8832C15.4715 11.8603 15.6369 11.6104 15.9379 11.5101C16.5726 11.2977 17.2067 11.0191 17.8402 10.6742C17.8593 10.6637 17.8752 10.6483 17.8863 10.6296C17.8974 10.6108 17.9033 10.5895 17.9033 10.5677C17.9033 10.5459 17.8974 10.5246 17.8863 10.5058C17.8752 10.4871 17.8593 10.4717 17.8402 10.4612C15.5173 9.21528 13.2453 8.10776 11.0244 7.13868C9.37018 6.41715 7.84792 5.63578 6.2676 4.82626C5.32433 4.34407 4.31243 4.01322 3.3674 3.47999C3.29818 3.44245 3.22544 3.44304 3.14918 3.48175C3.13838 3.48735 3.12918 3.49558 3.12242 3.50569C3.11565 3.5158 3.11155 3.52745 3.1105 3.53956C3.10945 3.55168 3.11147 3.56386 3.11639 3.57499C3.12131 3.58611 3.12895 3.59581 3.13862 3.60318C3.26885 3.70349 3.33044 3.80556 3.35684 3.96923C3.59266 5.48855 3.83023 6.96035 4.06957 8.38464C4.11885 8.68029 4.23324 8.97242 4.52361 9.11497C5.23458 9.46341 5.93675 9.69747 6.62484 10.0565C7.12698 10.3193 7.652 10.5398 8.19989 10.7182C8.29022 10.7478 8.36869 10.8055 8.42379 10.8828C8.47889 10.9601 8.50773 11.0529 8.5061 11.1476L8.49026 12.1964Z" stroke="#8DB2DE" stroke-width="2"/>
<path d="M19.9543 16.8206C19.9558 17.6565 19.6251 18.4588 19.0351 19.0509C18.445 19.643 17.6439 19.9765 16.808 19.978L4.17949 20C3.76558 20.0007 3.35558 19.9199 2.97291 19.7622C2.59023 19.6045 2.24236 19.3729 1.94918 19.0807C1.65599 18.7886 1.42322 18.4415 1.26415 18.0594C1.10509 17.6773 1.02285 17.2676 1.02213 16.8536L1 4.17938C0.998547 3.34346 1.32922 2.5412 1.91927 1.94908C2.50932 1.35696 3.31043 1.0235 4.14635 1.02204L16.7749 1C17.1888 0.999281 17.5988 1.08009 17.9814 1.23782C18.3641 1.39554 18.712 1.6271 19.0052 1.91926C19.2984 2.21143 19.5311 2.55848 19.6902 2.94061C19.8493 3.32273 19.9315 3.73244 19.9322 4.14635L19.9543 16.8206ZM8.49033 12.1965C8.48681 12.3818 8.40234 12.4329 8.23691 12.3496L4.80525 10.6214C4.60111 10.5182 4.47851 10.5792 4.43744 10.8044L3.24076 17.3669C3.2385 17.3788 3.23868 17.3911 3.2413 17.4029C3.24392 17.4148 3.24891 17.426 3.25599 17.4358C3.26306 17.4457 3.27207 17.4541 3.28246 17.4603C3.29285 17.4666 3.30441 17.4707 3.31643 17.4724C3.36688 17.4795 3.41616 17.4713 3.46426 17.4478C4.50373 16.9433 5.48454 16.4564 6.40669 15.9871C6.65131 15.8622 6.9452 15.8393 7.1775 15.7038C7.97998 15.2357 8.84405 14.9664 9.67117 14.5529C11.0884 13.8419 12.4793 13.1474 13.8437 12.4692C14.2256 12.2792 14.6268 12.2299 14.9771 11.9536C15.0299 11.9126 15.0897 11.8891 15.1566 11.8832C15.4716 11.8603 15.637 11.6105 15.9379 11.5101C16.5726 11.2978 17.2068 11.0191 17.8403 10.6742C17.8594 10.6638 17.8753 10.6484 17.8864 10.6296C17.8975 10.6109 17.9033 10.5895 17.9033 10.5678C17.9033 10.546 17.8975 10.5246 17.8864 10.5059C17.8753 10.4872 17.8594 10.4718 17.8403 10.4613C15.5173 9.21532 13.2454 8.10781 11.0245 7.13873C9.37024 6.4172 7.84799 5.63583 6.26766 4.82631C5.3244 4.34412 4.31249 4.01327 3.36747 3.48004C3.29825 3.4425 3.22551 3.44309 3.14925 3.4818C3.13845 3.4874 3.12924 3.49563 3.12248 3.50574C3.11572 3.51585 3.11162 3.5275 3.11057 3.53961C3.10951 3.55173 3.11154 3.56391 3.11646 3.57503C3.12137 3.58616 3.12902 3.59586 3.13869 3.60323C3.26892 3.70354 3.33051 3.80561 3.35691 3.96928C3.59272 5.48859 3.8303 6.9604 4.06964 8.38469C4.11891 8.68034 4.2333 8.97247 4.52367 9.11501C5.23464 9.46346 5.93682 9.69752 6.62491 10.0565C7.12705 10.3193 7.65206 10.5399 8.19996 10.7182C8.29029 10.7479 8.36875 10.8056 8.42385 10.8829C8.47896 10.9601 8.5078 11.0529 8.50617 11.1476L8.49033 12.1965Z" fill="white"/>
<path d="M8.49026 12.1964L8.5061 11.1476C8.50773 11.0529 8.47889 10.9601 8.42379 10.8828C8.36869 10.8055 8.29022 10.7478 8.19989 10.7182C7.652 10.5398 7.12698 10.3193 6.62484 10.0565C5.93675 9.69747 5.23458 9.46341 4.52361 9.11497C4.23324 8.97242 4.11885 8.68029 4.06957 8.38464C3.83023 6.96035 3.59266 5.48855 3.35684 3.96923C3.33044 3.80556 3.26885 3.70349 3.13862 3.60318C3.12895 3.59581 3.12131 3.58611 3.11639 3.57499C3.11147 3.56386 3.10945 3.55168 3.1105 3.53956C3.11155 3.52745 3.11565 3.5158 3.12242 3.50569C3.12918 3.49558 3.13838 3.48735 3.14918 3.48175C3.22544 3.44304 3.29818 3.44245 3.3674 3.47999C4.31243 4.01322 5.32433 4.34407 6.2676 4.82626C7.84792 5.63578 9.37018 6.41715 11.0244 7.13868C13.2453 8.10776 15.5173 9.21528 17.8402 10.4612C17.8593 10.4717 17.8752 10.4871 17.8863 10.5058C17.8974 10.5246 17.9033 10.5459 17.9033 10.5677C17.9033 10.5895 17.8974 10.6108 17.8863 10.6296C17.8752 10.6483 17.8593 10.6637 17.8402 10.6742C17.2067 11.0191 16.5726 11.2977 15.9379 11.5101C15.6369 11.6104 15.4715 11.8603 15.1565 11.8832C15.0896 11.889 15.0298 11.9125 14.977 11.9536C14.6268 12.2299 14.2255 12.2791 13.8437 12.4692C12.4792 13.1473 11.0884 13.8419 9.67111 14.5528C8.84399 14.9664 7.97991 15.2356 7.17743 15.7038C6.94513 15.8393 6.65124 15.8621 6.40662 15.9871C5.48447 16.4564 4.50366 16.9433 3.46419 17.4478C3.41609 17.4712 3.36681 17.4794 3.31636 17.4724C3.30434 17.4707 3.29278 17.4666 3.28239 17.4603C3.272 17.454 3.263 17.4457 3.25592 17.4358C3.24885 17.4259 3.24385 17.4147 3.24123 17.4029C3.23861 17.391 3.23843 17.3787 3.24069 17.3668L4.43738 10.8044C4.47844 10.5791 4.60104 10.5181 4.80518 10.6214L8.23685 12.3495C8.40227 12.4328 8.48674 12.3818 8.49026 12.1964Z" fill="#1B65BD"/>
</svg>
