<svg width="120" height="38" viewBox="0 0 120 38" fill="none" xmlns="http://www.w3.org/2000/svg">
<path d="M14.1278 5.10805L26.8926 11.3287C27.1037 11.431 27.0938 11.481 26.8629 11.4785C18.2629 11.4055 9.69134 11.4012 1.14813 11.4657C0.929614 11.467 0.918503 11.4201 1.1148 11.3251L13.8926 5.10805C13.9295 5.09045 13.9698 5.0813 14.0105 5.0813C14.0513 5.0813 14.0914 5.09045 14.1278 5.10805Z" fill="white"/>
<path d="M55.8556 25.5696C53.7926 27.3162 50.6852 27.2504 48.6019 25.5167C45.8871 23.2586 45.9019 18.9397 48.5278 16.6707C50.6315 14.8511 53.6371 14.8346 55.8593 16.4898C55.8679 16.496 55.8781 16.4997 55.8887 16.5007C55.8993 16.5016 55.9099 16.4997 55.9193 16.4951C55.9287 16.4906 55.9366 16.4836 55.942 16.4749C55.9475 16.4662 55.9502 16.4562 55.95 16.446L55.9445 11.0328C55.9445 11.0036 55.9587 10.9859 55.9871 10.9798L57.5797 10.6254C57.6044 10.6193 57.6167 10.6291 57.6167 10.6546V26.4338C57.6167 26.5933 57.5352 26.6731 57.3723 26.6731L56.1556 26.6713C56.0321 26.6713 55.971 26.6104 55.9723 26.4886V25.6226C55.9723 25.5215 55.9334 25.5039 55.8556 25.5696ZM48.2723 20.3063C48.0932 21.5181 48.3192 22.5869 48.95 23.5125C49.9871 25.0313 51.471 25.6275 53.4019 25.3011C54.371 25.1367 55.1939 24.6702 55.8704 23.9017C55.9193 23.8464 55.9463 23.7743 55.9463 23.6989L55.9482 18.3679C55.9482 18.3055 55.9251 18.2456 55.8834 18.1998C53.4 15.4905 48.813 16.6488 48.2723 20.3063Z" fill="white"/>
<path d="M34.7629 21.7805L32.7759 26.6329C32.771 26.6449 32.7626 26.6551 32.7517 26.6623C32.7408 26.6695 32.7279 26.6732 32.7148 26.673L31.0518 26.6712C31.0413 26.6711 31.031 26.6684 31.0217 26.6634C31.0125 26.6585 31.0046 26.6514 30.9988 26.6428C30.993 26.6341 30.9894 26.6242 30.9883 26.6139C30.9872 26.6036 30.9886 26.5932 30.9926 26.5835L37.5407 11.0382C37.5455 11.0265 37.5536 11.0164 37.5642 11.0093C37.5747 11.0021 37.5872 10.9982 37.6 10.998L39.6259 10.9999C39.6387 11.0001 39.6511 11.004 39.6617 11.0111C39.6722 11.0183 39.6804 11.0283 39.6851 11.0401L46.1444 26.5854C46.1483 26.595 46.1498 26.6054 46.1487 26.6157C46.1476 26.626 46.144 26.6359 46.1382 26.6446C46.1323 26.6532 46.1245 26.6603 46.1152 26.6653C46.106 26.6702 46.0957 26.6729 46.0851 26.673L44.3296 26.6694C44.3165 26.6696 44.3036 26.6658 44.2927 26.6587C44.2818 26.6515 44.2734 26.6412 44.2685 26.6292L42.3018 21.7805C42.2969 21.7685 42.2885 21.7583 42.2776 21.7511C42.2667 21.7439 42.2538 21.7402 42.2407 21.7404H34.824C34.8109 21.7402 34.7981 21.7439 34.7872 21.7511C34.7762 21.7583 34.7678 21.7685 34.7629 21.7805ZM35.424 20.1875C35.4205 20.1965 35.4191 20.2063 35.4202 20.2159C35.4213 20.2255 35.4247 20.2348 35.4301 20.2429C35.4356 20.2509 35.4429 20.2576 35.4515 20.2622C35.4601 20.2669 35.4698 20.2695 35.4796 20.2697L41.5926 20.2806C41.6024 20.2804 41.612 20.2779 41.6206 20.2732C41.6292 20.2685 41.6366 20.2619 41.642 20.2538C41.6475 20.2457 41.6509 20.2365 41.6519 20.2269C41.653 20.2172 41.6517 20.2075 41.6481 20.1984L38.6055 12.7245C38.6009 12.7135 38.5931 12.704 38.583 12.6974C38.573 12.6908 38.5611 12.6872 38.549 12.6872C38.5369 12.6872 38.5251 12.6908 38.5151 12.6974C38.505 12.704 38.4972 12.7135 38.4926 12.7245L35.424 20.1875Z" fill="white"/>
<path d="M71.6944 13.2836C72.3162 13.2836 72.8203 12.7862 72.8203 12.1728C72.8203 11.5593 72.3162 11.062 71.6944 11.062C71.0726 11.062 70.5685 11.5593 70.5685 12.1728C70.5685 12.7862 71.0726 13.2836 71.6944 13.2836Z" fill="white"/>
<path d="M2.44071 12.4633H25.5592C25.5769 12.4633 25.5939 12.4702 25.6064 12.4825C25.6189 12.4949 25.6259 12.5116 25.6259 12.529V13.4772C25.6259 13.4946 25.6189 13.5114 25.6064 13.5237C25.5939 13.536 25.5769 13.543 25.5592 13.543H2.43886C2.42118 13.543 2.40422 13.536 2.39172 13.5237C2.37922 13.5114 2.37219 13.4946 2.37219 13.4772L2.37404 12.529C2.37404 12.5116 2.38107 12.4949 2.39357 12.4825C2.40607 12.4702 2.42303 12.4633 2.44071 12.4633Z" fill="white"/>
<path d="M6.40739 14.5259H4.3185C4.28168 14.5259 4.25183 14.5553 4.25183 14.5916V28.2497C4.25183 28.286 4.28168 28.3155 4.3185 28.3155H6.40739C6.44421 28.3155 6.47405 28.286 6.47405 28.2497V14.5916C6.47405 14.5553 6.44421 14.5259 6.40739 14.5259Z" fill="white"/>
<path d="M10.6148 14.524H8.57031C8.52224 14.524 8.48328 14.5625 8.48328 14.6099V28.2315C8.48328 28.2789 8.52224 28.3173 8.57031 28.3173H10.6148C10.6628 28.3173 10.7018 28.2789 10.7018 28.2315V14.6099C10.7018 14.5625 10.6628 14.524 10.6148 14.524Z" fill="white"/>
<path d="M14.8833 14.524H12.8018C12.763 14.524 12.7314 14.5551 12.7314 14.5935V28.2479C12.7314 28.2862 12.763 28.3173 12.8018 28.3173H14.8833C14.9222 28.3173 14.9537 28.2862 14.9537 28.2479V14.5935C14.9537 14.5551 14.9222 14.524 14.8833 14.524Z" fill="white"/>
<path d="M19.137 14.5387H17.0444C17.0096 14.5387 16.9814 14.5665 16.9814 14.6008V28.2552C16.9814 28.2895 17.0096 28.3173 17.0444 28.3173H19.137C19.1718 28.3173 19.2 28.2895 19.2 28.2552V14.6008C19.2 14.5665 19.1718 14.5387 19.137 14.5387Z" fill="white"/>
<path d="M23.3704 14.5277H21.2704C21.2346 14.5277 21.2056 14.5563 21.2056 14.5917V28.2534C21.2056 28.2887 21.2346 28.3173 21.2704 28.3173H23.3704C23.4062 28.3173 23.4352 28.2887 23.4352 28.2534V14.5917C23.4352 14.5563 23.4062 14.5277 23.3704 14.5277Z" fill="white"/>
<path d="M81.9223 25.6591C80.6945 26.5963 79.3871 26.9617 77.7704 26.8375C76.3223 26.7279 74.8574 25.9734 74.3574 24.6123C73.6815 22.7744 74.6574 21.048 76.5204 20.4086C78.1908 19.8349 80.2241 19.9975 81.9074 20.7739C81.9939 20.8141 82.0377 20.7873 82.0389 20.6936C82.0463 20.1723 82.0402 19.64 82.0204 19.0968C81.9241 16.4788 79.1149 16.3345 77.2315 16.8936C76.634 17.0702 76.0568 17.3046 75.5 17.5969C75.4679 17.614 75.4439 17.6061 75.4278 17.5732L74.8463 16.4058C74.8315 16.3778 74.8389 16.3564 74.8686 16.3418C76.5772 15.471 78.2766 15.1141 79.9667 15.2713C82.113 15.4722 83.65 16.7364 83.6519 18.9781C83.6556 21.7148 83.6587 24.2092 83.6611 26.4612C83.6611 26.6037 83.5889 26.6749 83.4445 26.6749L82.2167 26.6694C82.0599 26.6694 81.9933 26.5921 82.0167 26.4374C82.0537 26.1938 82.0612 25.9508 82.0389 25.7085C82.0315 25.6208 81.9926 25.6043 81.9223 25.6591ZM81.9463 22.1094C80.8149 21.3787 79.3704 21.1649 78.0408 21.3147C75.113 21.6417 74.9593 25.0508 77.863 25.5075C79.384 25.7462 80.7229 25.39 81.8797 24.4388C81.9858 24.3511 82.0389 24.2402 82.0389 24.1062C82.0377 23.4583 82.0371 22.8481 82.0371 22.2757C82.0371 22.205 82.0068 22.1496 81.9463 22.1094Z" fill="white"/>
<path d="M88.4593 15.3992H87.6556C87.6096 15.3992 87.5723 15.436 87.5723 15.4814V28.8471C87.5723 28.8926 87.6096 28.9294 87.6556 28.9294H88.4593C88.5053 28.9294 88.5426 28.8926 88.5426 28.8471V15.4814C88.5426 15.436 88.5053 15.3992 88.4593 15.3992Z" fill="white"/>
<path d="M64.3389 24.4114L68.1593 15.485C68.1637 15.4744 68.1711 15.4653 68.1806 15.4588C68.1902 15.4523 68.2014 15.4487 68.213 15.4485H69.8667C69.8767 15.4482 69.8866 15.4505 69.8955 15.455C69.9043 15.4596 69.9119 15.4663 69.9174 15.4745C69.923 15.4827 69.9263 15.4921 69.9272 15.502C69.928 15.5118 69.9263 15.5217 69.9223 15.5307L65.0649 26.6384C65.0602 26.6486 65.0527 26.6574 65.0432 26.6635C65.0337 26.6697 65.0226 26.673 65.0112 26.6731L63.513 26.6713C63.5016 26.6712 63.4905 26.6679 63.481 26.6617C63.4715 26.6555 63.4639 26.6468 63.4593 26.6366L58.5815 15.5325C58.5775 15.5235 58.5758 15.5136 58.5766 15.5038C58.5775 15.494 58.5808 15.4845 58.5864 15.4763C58.5919 15.4681 58.5995 15.4614 58.6083 15.4569C58.6172 15.4523 58.6271 15.4501 58.6371 15.4503L60.3575 15.443C60.3691 15.4432 60.3803 15.4468 60.3899 15.4533C60.3994 15.4598 60.4068 15.4689 60.4112 15.4795L64.2315 24.4114C64.2363 24.4214 64.2439 24.43 64.2534 24.436C64.2629 24.4419 64.274 24.4451 64.2852 24.4451C64.2965 24.4451 64.3076 24.4419 64.3171 24.436C64.3266 24.43 64.3342 24.4214 64.3389 24.4114Z" fill="white"/>
<path d="M72.4537 15.4448H70.9278C70.8889 15.4448 70.8574 15.4759 70.8574 15.5142V26.6037C70.8574 26.642 70.8889 26.6731 70.9278 26.6731H72.4537C72.4926 26.6731 72.5241 26.642 72.5241 26.6037V15.5142C72.5241 15.4759 72.4926 15.4448 72.4537 15.4448Z" fill="white"/>
<path d="M93.9351 23.0576V26.0793C93.9351 26.1098 93.9197 26.125 93.8888 26.125L92.9147 26.1268C92.902 26.1268 92.8897 26.1216 92.8807 26.1124C92.8717 26.1031 92.8666 26.0906 92.8666 26.0775L92.8647 16.1189C92.8647 16.0434 92.9036 16.0051 92.9814 16.0039C94.2752 16.0014 95.5493 16.0032 96.8036 16.0093C99.3518 16.0203 101.23 17.4343 100.807 20.2131C100.511 22.1551 98.5277 22.9169 96.7759 22.9242C95.8265 22.9279 94.9246 22.9279 94.0703 22.9242C93.9802 22.9242 93.9351 22.9687 93.9351 23.0576ZM93.9259 16.9995L93.9444 21.9359C93.9449 21.9535 93.9523 21.9702 93.9651 21.9825C93.9779 21.9948 93.995 22.0016 94.0129 22.0016L97.0888 21.9925C97.4464 21.9912 97.8002 21.9291 98.1301 21.8098C98.4599 21.6906 98.7594 21.5165 99.0113 21.2974C99.2633 21.0784 99.4627 20.8188 99.5984 20.5333C99.734 20.2479 99.8031 19.9423 99.8018 19.6339V19.2576C99.7991 18.6351 99.5098 18.0393 98.9976 17.6011C98.4854 17.1629 97.7921 16.9183 97.0703 16.921L93.9944 16.9301C93.9852 16.9301 93.9762 16.9319 93.9677 16.9354C93.9593 16.9389 93.9516 16.9441 93.9453 16.9505C93.9389 16.957 93.9339 16.9647 93.9305 16.9731C93.9272 16.9815 93.9256 16.9905 93.9259 16.9995Z" fill="white"/>
<path d="M103.739 19.6906C103.736 19.8696 103.786 19.8848 103.889 19.7362C104.474 18.8861 105.362 18.4647 106.554 18.472C106.596 18.472 106.617 18.4927 106.618 18.5341L106.63 19.3891C106.63 19.3962 106.628 19.4033 106.625 19.4098C106.623 19.4164 106.619 19.4223 106.614 19.4273C106.609 19.4322 106.603 19.4361 106.596 19.4386C106.59 19.4412 106.583 19.4424 106.576 19.4421C104.502 19.3617 103.756 20.7264 103.78 22.5534C103.797 23.8042 103.798 24.9704 103.783 26.0519C103.783 26.1019 103.757 26.1268 103.706 26.1268L102.83 26.1232C102.807 26.1232 102.784 26.1141 102.768 26.098C102.752 26.0819 102.743 26.0601 102.743 26.0373L102.744 18.5981C102.744 18.5506 102.768 18.5268 102.815 18.5268L103.668 18.5177C103.725 18.5165 103.753 18.5439 103.752 18.5999L103.739 19.6906Z" fill="white"/>
<path d="M115.306 22.3251C115.306 23.3576 114.89 24.3478 114.15 25.0779C113.41 25.8081 112.406 26.2182 111.359 26.2182C110.313 26.2182 109.309 25.8081 108.569 25.0779C107.829 24.3478 107.413 23.3576 107.413 22.3251C107.413 21.8138 107.515 21.3075 107.713 20.8352C107.912 20.3629 108.202 19.9337 108.569 19.5722C108.935 19.2107 109.37 18.9239 109.849 18.7282C110.328 18.5326 110.841 18.4319 111.359 18.4319C111.877 18.4319 112.391 18.5326 112.869 18.7282C113.348 18.9239 113.783 19.2107 114.15 19.5722C114.516 19.9337 114.807 20.3629 115.005 20.8352C115.203 21.3075 115.306 21.8138 115.306 22.3251ZM111.352 25.3176C111.733 25.3182 112.11 25.2414 112.462 25.0914C112.813 24.9414 113.133 24.7213 113.403 24.4435C113.673 24.1658 113.887 23.8359 114.033 23.4726C114.179 23.1093 114.255 22.7199 114.256 22.3264C114.256 21.9329 114.182 21.5432 114.037 21.1794C113.892 20.8157 113.679 20.485 113.41 20.2063C113.142 19.9276 112.823 19.7064 112.471 19.5552C112.12 19.404 111.743 19.3259 111.363 19.3253C110.982 19.3246 110.605 19.4014 110.253 19.5514C109.901 19.7014 109.581 19.9215 109.312 20.1993C109.042 20.477 108.828 20.807 108.682 21.1702C108.536 21.5335 108.46 21.923 108.459 22.3164C108.459 22.7099 108.533 23.0996 108.678 23.4634C108.823 23.8271 109.036 24.1578 109.304 24.4365C109.573 24.7152 109.892 24.9364 110.243 25.0876C110.595 25.2388 110.972 25.3169 111.352 25.3176Z" fill="white"/>
<path d="M25.0259 30.3872L27.6704 30.4073C27.689 30.4073 27.7069 30.4146 27.7201 30.4277C27.7333 30.4407 27.7407 30.4583 27.7407 30.4767L27.7444 32.1758C27.7444 32.1942 27.737 32.2119 27.7238 32.2249C27.7106 32.2379 27.6927 32.2452 27.6741 32.2452H0.255551C0.236888 32.2452 0.218989 32.2379 0.205792 32.2249C0.192595 32.2119 0.185181 32.1942 0.185181 32.1758V30.4877C0.185174 30.4696 0.192334 30.4522 0.205133 30.4392C0.217932 30.4263 0.235359 30.4188 0.253699 30.4183L2.98148 30.3781C2.99982 30.3776 3.01724 30.3701 3.03004 30.3571C3.04284 30.3442 3.05 30.3268 3.05 30.3087L3.0574 29.3842C3.0574 29.3658 3.06482 29.3482 3.07801 29.3352C3.09121 29.3221 3.10911 29.3148 3.12777 29.3148L24.8815 29.3221C24.9001 29.3221 24.918 29.3294 24.9312 29.3425C24.9444 29.3555 24.9518 29.3731 24.9518 29.3915L24.9555 30.3178C24.9555 30.3362 24.963 30.3539 24.9762 30.3669C24.9894 30.3799 25.0073 30.3872 25.0259 30.3872Z" fill="white"/>
</svg>
